<?xml version="1.0" encoding="UTF-8" standalone="no"?>
<svg
   xmlns:dc="http://purl.org/dc/elements/1.1/"
   xmlns:cc="http://creativecommons.org/ns#"
   xmlns:rdf="http://www.w3.org/1999/02/22-rdf-syntax-ns#"
   xmlns:svg="http://www.w3.org/2000/svg"
   xmlns="http://www.w3.org/2000/svg"
   xmlns:sodipodi="http://sodipodi.sourceforge.net/DTD/sodipodi-0.dtd"
   xmlns:inkscape="http://www.inkscape.org/namespaces/inkscape"
   width="48.283623mm"
   height="10.582mm"
   version="1.1"
   viewBox="0 0 48.283622 10.582"
   id="svg18"
   sodipodi:docname="facebollk logo.svg"
   inkscape:version="0.92.4 5da689c313, 2019-01-14">
  <metadata
     id="metadata24">
    <rdf:RDF>
      <cc:Work
         rdf:about="">
        <dc:format>image/svg+xml</dc:format>
        <dc:type
           rdf:resource="http://purl.org/dc/dcmitype/StillImage" />
        <dc:title></dc:title>
      </cc:Work>
    </rdf:RDF>
  </metadata>
  <defs
     id="defs22" />
  <sodipodi:namedview
     pagecolor="#ffffff"
     bordercolor="#666666"
     borderopacity="1"
     objecttolerance="10"
     gridtolerance="10"
     guidetolerance="10"
     inkscape:pageopacity="0"
     inkscape:pageshadow="2"
     inkscape:window-width="3774"
     inkscape:window-height="2087"
     id="namedview20"
     showgrid="false"
     inkscape:zoom="7.8934346"
     inkscape:cx="86.115746"
     inkscape:cy="35.390988"
     inkscape:window-x="66"
     inkscape:window-y="39"
     inkscape:window-maximized="1"
     inkscape:current-layer="svg18" />
  <g
     transform="translate(354.32999,109.16)"
     id="g16">
    <rect
       x="-354.32999"
       y="-109.16"
       width="10.582"
       height="10.582"
       ry="1.4733058"
       id="rect2"
       style="fill:#335095;stroke-width:0.26458001" />
    <g
       transform="matrix(0.015809,0,0,0.015809,-354.87,-112.22)"
       id="g10"
       style="fill:#ffffff;fill-opacity:0.94957999">
      <g
         transform="matrix(0.25282377,0,0,0.24709707,-5035.8407,3705.4621)"
         id="g8"
         style="opacity:0.98999999;fill:#ffffff;fill-opacity:0.94957999;stroke:#87eebf">
        <g
           transform="translate(12161,-15938)"
           id="g6"
           style="fill:#ffffff;fill-opacity:0.94957999;stroke:#87eebf">
          <path
             d="m 8844.4,4026.9 c -62.324,-9.875 -75.356,-17.252 -75.355,-42.664 0,-21.458 13.968,-44.056 68.527,-110.87 94.697,-115.97 217.2,-270.81 215.56,-272.45 -1.0095,-1.0091 -20.938,-13.828 -44.284,-28.486 -23.348,-14.657 -57.279,-38.772 -75.402,-53.587 -58.402,-47.74 -157.29,-163.78 -192.06,-225.38 -7.0082,-12.415 -13.891,-22.575 -15.295,-22.578 -1.4039,0 -10.541,13.885 -20.305,30.861 -47.052,81.808 -233.95,289.09 -320.68,355.65 -50.975,39.122 -75.517,45.898 -89.414,24.688 -7.3609,-11.234 -6.8653,-14.95 9.671,-72.489 50.616,-176.13 65.36,-431.59 33.95,-588.26 -3.6686,-18.3 -10.336,-54.662 -14.817,-80.805 -13.082,-76.327 -55.342,-214.64 -108.74,-355.87 -6.7896,-17.959 -19.831,-44.975 -28.98,-60.038 -19.34,-31.837 -22.32,-58.415 -7.4418,-66.377 27.192,-14.553 52.274,-0.7433 180.94,99.604 114.63,89.404 138.33,109.08 179.93,149.43 53.466,51.85 69.437,72.096 137.13,173.83 28.699,43.136 55.502,81.176 59.564,84.535 6.3678,5.2649 27.316,-14.675 152.24,-144.91 133.19,-138.86 144.37,-151.78 138.85,-160.59 -3.3005,-5.2655 -7.4252,-22.407 -9.1659,-38.093 -10.057,-90.634 -58.477,-201.16 -108.44,-247.52 -32.679,-30.326 -104.95,-81.258 -141.11,-99.451 -54.32,-27.327 -68.296,-47.917 -48.832,-71.946 11.804,-14.572 21.319,-18.318 77.088,-30.347 88.624,-19.115 198.75,-7.3273 296.98,31.791 136.99,54.553 259.91,136.28 290.59,193.21 12.931,23.996 4.7254,22.948 -22.094,-2.8224 -14.463,-13.896 -44.562,-37.421 -66.89,-52.277 -47.859,-31.844 -153.37,-87.343 -203.83,-107.22 -42.185,-16.613 -67.694,-23.655 -42.779,-11.81 27.006,12.841 6.2381,12.734 -45.751,-0.2354 -63.462,-15.832 -138.68,-19.741 -183.95,-9.5588 -18.759,4.2199 -35.912,8.7372 -38.118,10.039 -2.2064,1.3019 11.697,10.88 30.896,21.284 73.898,40.046 123.69,84.86 165.25,148.71 47.832,73.499 67.488,123.21 85.999,217.48 l 5.3713,27.353 53.133,-47.912 c 29.222,-26.351 76.661,-63.535 105.42,-82.631 74.522,-49.486 169.57,-99.703 130.71,-69.06 -9.945,7.8425 -6.843,7.3348 19.013,-3.1105 70.83,-28.614 178.97,-63.952 222.23,-72.621 194.38,-38.951 360.52,-16.349 543.2404,73.907 61.219,30.24 80.612,46.074 80.612,65.822 0,12.035 -13.659,26.238 -25.233,26.238 -4.316,0 -24.467,3.0584 -44.781,6.7963 -20.314,3.7382 -52.977,9.2676 -72.584,12.288 -68.915,10.616 -168.4604,34.607 -201.7004,48.614 -18.474,7.784 -38.392,14.798 -44.263,15.586 -17.507,2.3508 -57.662,29.473 -107.88,72.867 l -47.254,40.833 15.067,3.0816 c 8.2869,1.6948 45.594,22.294 82.905,45.774 71.748,45.154 95.123,58.368 103.25,58.368 9.214,2e-4 5.11,-42.861 -9.699,-101.28 -8.079,-31.872 -15.002,-70.461 -15.384,-85.753 -0.597,-23.904 0.871,-29.071 10.463,-36.838 22.246,-18.014 47.657,-8.209 117.05,45.163 26.1424,20.106 63.4704,47.508 82.9504,60.893 29.469,20.248 33.866,24.88 26.175,27.578 -8.172,2.8662 -7.409,4.1918 6.573,11.422 8.701,4.4969 22.373,8.3654 30.385,8.5932 31.107,0.8836 36.962,-31.053 25.297,-137.99 -7.812,-71.628 -7.709,-88.384 0.501,-80.178 5.619,5.6193 20.473,90.064 23.633,134.36 3.763,52.735 0.297,73.328 -15.5,92.102 -10.011,11.897 -15.648,14.4 -32.445,14.4 -26.491,0 -75.067,-24.411 -119.05,-59.824 -39.8804,-32.113 -83.4904,-63.53 -108.8704,-78.433 l -18.558,-10.894 3.38,25.856 c 1.858,14.221 8.415,46.176 14.57,71.012 16.246,65.557 18.322,83.143 12.054,102.13 -14.442,43.758 -52.839,35.215 -147.2,-32.749 -59.99,-43.21 -75.936,-49.944 -80.278,-45.602 -2.931,2.9319 4.5578,31.345 25.462,106.93 18.944,68.499 14.489,97.442 -14.997,97.441 -13.205,2e-4 -57.768,-16.918 -108.47,-41.182 -18.226,-8.7214 -36.942,-15.857 -41.591,-15.857 -13.56,0 -10.587,26.092 10.56,92.689 27.908,87.887 26.333,106.96 -8.826,106.93 -16.802,0 -32.819,-5.4056 -67.104,-22.578 -24.768,-12.406 -45.801,-25.232 -46.741,-28.501 -2.0081,-6.9864 1.2412,-6.0528 53.749,15.45 70.098,28.707 75.397,26.993 61.689,-19.946 -4.4303,-15.172 -8.6641,-31.863 -9.4066,-37.092 -0.7424,-5.2284 -4.9607,-19.132 -9.373,-30.896 -4.4121,-11.764 -10.696,-34.146 -13.964,-49.738 l -5.9427,-28.348 -28.597,42.608 c -33.69,50.196 -63.364,103.6 -77.812,140.05 -21.503,54.241 -43.051,136.16 -45.827,174.22 -2.5215,34.569 -1.6915,40.59 7.6918,55.772 44.064,71.297 359.05,211.48 544.58,242.36 80.358,13.376 248.4799,34.189 251.4099,31.124 1.058,-1.1039 -3.118,-39.44 -9.279,-85.191 -15.697,-116.58 -31.42,-175.87 -46.638,-175.87 -8.069,0 -33.677,35.554 -83.515,115.95 -45.9199,74.08 -58.6579,88.437 -78.4619,88.437 -26,6e-4 -30.855,-10.516 -43.187,-93.548 -6.142,-41.356 -13.696,-82.306 -16.787,-91.001 l -5.62,-15.808 -16.519,15.808 c -9.085,8.6944 -36.672,40.822 -61.304,71.394 -24.632,30.572 -50.375,59.983 -57.207,65.357 -16.99,13.364 -32.918,12.474 -42.653,-2.3861 -6.9607,-10.623 -7.5667,-21.415 -4.802,-85.53 3.5325,-81.924 0.8709,-111.46 -10.047,-111.46 -3.9164,-6e-4 -33.319,25.668 -65.34,57.039 -59.368,58.164 -73.22,66.148 -83.014,47.844 -6.3535,-11.87 -6.2478,-55.141 0.2964,-122.17 10.404,-106.56 -10.668,-113.15 -101.96,-31.908 -56.357,50.154 -64.184,56.213 -67.864,52.535 -4.9814,-4.9824 78.498,-87.694 109.3,-108.29 60.83,-40.68 90.082,-13.861 79.235,72.647 -5.5628,44.366 -6.5982,122.61 -1.6221,122.61 1.8104,-6e-4 28.033,-25.827 58.273,-57.394 54.037,-56.409 55.307,-57.368 73.949,-55.851 16.265,1.3235 20.153,3.9144 27.279,18.18 6.9974,14.006 8.3014,30.162 8.2455,102.2 2e-4,56.994 -1.6036,83.178 -4.6727,78.428 -2.5344,-3.9207 -4.6081,-4.9901 -4.6063,-2.3795 0,2.6145 1.7015,7.4331 3.7802,10.707 4.9846,7.851 16.594,-4.817 71.966,-78.529 47.084,-62.678 67.547,-81.905 87.172,-81.905 26.893,0 33.58,16.907 50.572,127.87 4.906,32.037 10.327,59.656 12.046,61.374 4.478,4.4782 15.291,-10.559 72.0579,-100.21 56.529,-89.275 69.83,-103.53 95.958,-102.82 15.216,0.4153 15.933,0.9081 5.576,3.8591 l -11.883,3.386 11.931,3.0748 c 6.562,1.6911 15.693,9.44 20.288,17.222 12.395,20.982 25.922,92.354 34.779,183.5 4.483,46.13 10.15,82.304 13.207,84.298 2.945,1.9202 14.585,3.5254 25.868,3.5654 30.381,0.1163 38.902,6.3661 38.902,28.574 0,21.606 -9.82,33.022 -42.779,49.731 -24.154,12.244 -119.65,36.322 -152.1,38.348 -11.764,0.7341 -52.404,6.7683 -90.3119,13.408 -114.81,20.109 -180.01,23.929 -300.52,17.606 -94.397,-4.9514 -183.94,-13.718 -225.96,-22.121 l -14.613,-2.9225 4.7907,20.717 c 6.8867,29.79 2.2759,74.453 -10.216,98.938 -5.8635,11.496 -21.624,32.49 -35.02,46.655 -25.987,27.478 -89.173,68.504 -92.079,59.786 -1.5565,-4.6681 -81.339,26.146 -94.034,36.318 -10.042,8.046 -68.551,30.462 -113.5,43.484 -42.845,12.412 -53.044,13.548 -116.45,12.982 -38.745,-0.3462 -91.89,-4.1671 -120.1,-8.6368 z m 161.65,-45.274 c 101.96,-20.765 126.25,-30.329 237.64,-93.568 91.933,-52.191 104.37,-65.213 108.79,-113.87 2.7824,-30.679 10.061,-34.966 17.186,-10.122 5.7377,20.008 0.5315,44.043 -14.316,66.03 -10.116,14.984 -10.545,16.681 -2.3707,9.3567 18.171,-16.282 29.24,-46.331 29.211,-79.302 0,-40.504 -4.7962,-55.968 -41.529,-134.9 -31.237,-67.123 -44.138,-115.96 -29.33,-111.02 7.19,2.3968 70.194,106.35 87.63,144.59 11.859,26.004 11.594,25.85 64.062,37.252 75.204,16.345 271.47,28.052 357.38,21.319 152.16,-11.924 379.3697,-63.096 395.4197,-89.054 1.347,-2.1899 -27.768,-6.5648 -64.708,-9.7292 -78.126,-6.6911 -243.9997,-30.453 -304.6597,-43.644 -23.095,-5.0211 -72.291,-20.106 -109.33,-33.521 -242.12,-87.704 -388.18,-173.32 -403.84,-236.73 -1.5382,-6.2294 -0.832,-28.558 1.5705,-49.619 2.4018,-21.062 3.562,-39.098 2.5782,-40.082 -0.9854,-0.9821 -4.338,13.323 -7.4537,31.794 -8.2155,48.709 -16.448,43.504 -12.664,-8.0073 3.4634,-47.157 19.561,-129.72 26.105,-133.89 2.3881,-1.5222 16.137,-26.295 30.551,-55.053 35.623,-71.066 101.77,-170.91 155.25,-234.33 21.073,-24.992 31.188,-31.558 25.407,-16.493 -1.7358,4.524 27.741,-22.851 65.506,-60.833 77.614,-78.062 154.37,-138.52 210.92,-166.15 21.104,-10.31 61.9,-25.405 90.657,-33.546 28.757,-8.1411 55.494,-17.564 59.415,-20.941 11.164,-9.614 38.5477,-14.046 42.9337,-6.9479 2.949,4.7711 6.589,4.8319 17.546,0.2937 8.672,-3.5923 18.136,-4.2322 25.394,-1.7172 6.362,2.2053 28.68,2.8364 49.595,1.4031 l 38.025,-2.6063 -26.143,-17.192 c -37.428,-24.612 -98.647,-54.562 -139.6897,-68.339 -84.635,-28.411 -159.43,-35.416 -283.95,-26.594 -90.771,6.4314 -126.11,13.986 -225.18,48.139 -89.054,30.699 -164.75,66.319 -225.43,106.07 -56.168,36.802 -198.94,163.28 -261.73,231.87 -83.655,91.371 -201.91,209.76 -223.19,223.44 -24.799,15.941 -46.439,17.378 -63.199,4.1936 -6.5658,-5.1645 -25.32,-32.436 -41.674,-60.604 -54.075,-93.129 -80.564,-129.45 -129.95,-178.18 -59.128,-58.339 -212.11,-189.84 -257.39,-221.26 l -33.273,-23.082 19.743,40.68 c 30.296,62.421 95.012,289.49 127.42,447.08 16.598,80.708 25.821,258.13 17.129,329.53 -14.648,120.32 -20.481,160.8 -29.46,204.44 -5.2903,25.719 -8.6971,47.684 -7.5703,48.811 3.9209,3.922 158.28,-158.16 210.22,-220.73 28.757,-34.647 67.258,-87.333 85.559,-117.08 18.299,-29.748 38.458,-59.604 44.796,-66.347 21.688,-23.073 49.312,-12.468 55.543,21.325 7.4708,40.516 67.887,127.3 141.73,203.58 51.051,52.738 103.09,94.28 153.21,122.31 l 30.86,17.258 18.564,-18.128 c 20.056,-19.584 28.338,-18.925 20.57,1.6383 -8.898,23.552 -107.45,168.61 -110.84,163.14 -3.0528,-4.9392 -55.786,67.946 -148.24,204.89 -32.542,48.202 -35.193,53.787 -26.143,55.066 5.5406,0.7818 13.222,2.5006 17.071,3.8197 11.079,3.7992 -3.6599,11.234 -22.444,11.322 -25.269,0.1203 -17.529,8.937 9.5062,10.828 67.476,4.7205 99.79,3.0016 155.01,-8.2451 z m 43.636,-574.04 c -13.199,-16.313 -23.226,-31.821 -22.283,-34.462 0.9444,-2.6404 -2.3106,-10.554 -7.2315,-17.584 -20.784,-29.696 -65.75,-137.29 -65.75,-157.33 -2e-4,-2.4195 3.3604,-3.1091 7.4694,-1.5326 6.5209,2.5019 6.9731,-0.602 3.5644,-24.446 -2.147,-15.021 -3.9047,-57.258 -3.9042,-93.858 0,-63.713 0.6816,-68.416 16.031,-110.51 10.457,-28.682 18.5,-43.968 23.132,-43.968 4.8735,0 6.2813,3.1334 4.4931,9.9764 -3.3857,12.945 -3.2562,12.789 24.349,-29.499 23.368,-35.795 45.33,-56.53 59.878,-56.53 11.671,-2e-4 9.1226,8.5751 -8.7587,29.465 -8.9885,10.501 -27.626,41.856 -41.417,69.678 -13.79,27.821 -26.718,51.285 -28.728,52.141 -7.7715,3.3092 -12.743,39.509 -15.78,114.9 -2.5957,64.433 -1.7521,84.538 4.7295,112.67 10.635,46.16 31.472,99.282 59.793,152.44 35.052,65.793 30.812,78.379 -9.5866,28.452 z m -77.758,-199.39 c -1.5173,-3.7916 -2.6436,-2.6653 -2.8717,2.8723 -0.2058,5.0107 0.9173,7.8174 2.497,6.2386 1.5798,-1.5797 1.7481,-5.6795 0.3715,-9.1109 z m -511.85,70.396 c 0,-8.6104 12.553,-18.834 18.565,-15.119 2.5935,1.6112 9.5097,-3.5585 15.362,-11.474 5.8528,-7.9155 14.778,-14.392 19.835,-14.392 8.0382,0 8.3742,1.0121 2.6712,8.0426 -5.6268,6.9362 -5.5423,7.4683 0.606,3.8695 16.533,-9.6756 33.272,-23.507 33.273,-27.492 0,-5.8174 19.957,-22.092 27.331,-22.288 3.268,-0.075 5.9412,2.3813 5.9414,5.4845 4e-4,3.1032 5.9994,-0.1162 13.331,-7.1296 7.3328,-7.0257 18.198,-12.773 24.144,-12.773 9.6731,-6e-4 10.482,1.6277 7.6771,15.448 -3.2436,15.982 -19.31,33.929 -26.432,29.527 -2.2353,-1.3705 -7.3606,3.8844 -11.4,11.696 -5.4052,10.453 -11.97,15.07 -24.865,17.489 -9.6362,1.8084 -29.908,8.3206 -45.05,14.473 -31.099,12.637 -60.991,14.91 -60.991,4.6375 z m -7.0888,-197.4 c -17.084,-2.0293 -24.152,-5.0709 -25.25,-10.866 -1.1492,-6.0587 2.9509,-8.7556 16.595,-10.916 9.9667,-1.5775 24.538,-5.6634 32.381,-9.0799 32.162,-14.01 87.935,-4.8631 87.935,14.42 2e-4,5.6934 -3.1789,6.8658 -13.072,4.8198 -7.1892,-1.4872 -10.397,-1.5408 -7.1298,-0.1203 8.774,3.8156 7.2197,16.051 -2.0391,16.051 -4.3895,6e-4 -15.433,-2.6732 -24.542,-5.9415 -13.248,-4.7529 -16.96,-4.7529 -18.558,0 -2.0748,6.1706 -6.7159,6.3352 -46.32,1.6302 z m 86.706,-170.08 c -4.5743,-1.1967 -8.318,-3.9318 -8.3184,-6.0794 4e-4,-2.1478 -8.0209,-4.9907 -17.824,-6.3173 -9.8037,-1.3267 -39.214,-10.106 -65.357,-19.509 -44.8,-16.114 -62.348,-27.527 -56.607,-36.817 3.1911,-5.1637 16.204,-5.3156 16.204,-0.1897 0,2.1248 9.5628,3.7294 21.251,3.5648 11.688,-0.1652 21.229,1.8405 21.202,4.4551 -0.075,6.1538 29.613,11.175 36.484,6.1724 8.7465,-6.3684 36.183,1.5355 38.696,11.148 1.3705,5.2384 9.4764,10.685 20.203,13.573 22.924,6.173 32.035,16.193 23.776,26.145 -5.8583,7.0586 -13.6,8.0629 -29.708,3.854 z m 857.69,-181.94 c -21.502,-13.492 -33.95,-42.69 -34.08,-79.934 -0.1142,-33.247 6.7239,-53.303 28.543,-83.685 42.215,-58.782 111.05,-52.39 128.36,11.922 2.9549,10.976 3.9746,27.414 2.2639,36.53 -2.0981,11.184 -1.1415,17.79 2.9404,20.312 10.446,6.4575 6.934,35.351 -6.8251,56.143 -18.936,28.614 -46.034,44.772 -78.58,46.857 -21.072,1.3493 -30.308,-0.4142 -42.626,-8.1441 z m 91.739,-74.718 c 10.156,-19.116 12.406,-28.317 10.024,-41.012 -4.0236,-21.449 -22.644,-41.291 -38.748,-41.291 -23.716,4e-4 -54.42,43.662 -54.42,77.387 2e-4,29.677 43.126,55.187 62.356,36.884 4.2319,-4.0278 13.586,-18.413 20.789,-31.968 z m 208.64,265.87 c -1.7059,-7.1891 -11.13,-38.739 -20.942,-70.111 -9.812,-31.371 -19.342,-66.14 -21.177,-77.263 l -3.3354,-20.225 -12.65,9.2077 c -22.023,16.03 -68.883,63.646 -91.644,93.122 l -21.955,28.432 21.955,0.4714 c 15.667,0.3359 36.928,7.3848 74.24,24.613 28.758,13.278 58.209,24.296 65.448,24.484 11.99,0.3105 12.886,-0.8226 10.06,-12.73 z"
             id="path4"
             inkscape:connector-curvature="0"
             style="fill:#ffffff;fill-opacity:0.94957999;stroke:none" />
        </g>
      </g>
    </g>
    <g
       aria-label="FaceBolk"
       style="font-size:10.58300018px;line-height:1.25;font-family:sans-serif;letter-spacing:0px;word-spacing:0px;fill:#000000;stroke-width:0.26458001"
       id="text14"
       transform="matrix(0.94753976,0,0,1,-17.929164,0)">
      <path
         d="m -341.76671,-106.7074 h 3.9374 v 1.10277 h -2.4784 v 1.05351 h 2.3306 v 1.10278 h -2.3306 v 2.39882 h -1.459 z"
         style="font-style:normal;font-variant:normal;font-weight:bold;font-stretch:normal;font-size:7.76111126px;font-family:sans-serif;-inkscape-font-specification:'sans-serif Bold';letter-spacing:-0.111125px;fill:#ffffff;stroke-width:0.26458001"
         id="path860"
         inkscape:connector-curvature="0" />
      <path
         d="m -335.18539,-102.95948 q -0.42444,0 -0.64045,0.144 -0.21221,0.14401 -0.21221,0.42444 0,0.25769 0.17053,0.40549 0.17432,0.144 0.48128,0.144 0.38275,0 0.64423,-0.27285 0.26148,-0.27664 0.26148,-0.68971 v -0.15537 z m 2.07291,-0.5116 v 2.42156 h -1.36805 v -0.62908 q -0.27285,0.38654 -0.61391,0.56465 -0.34107,0.17433 -0.82993,0.17433 -0.65939,0 -1.07245,-0.38275 -0.40928,-0.38654 -0.40928,-1.00046 0,-0.74655 0.5116,-1.0952 0.51538,-0.34864 1.61437,-0.34864 h 0.7996 v -0.10611 q 0,-0.32211 -0.2539,-0.46991 -0.2539,-0.15158 -0.79203,-0.15158 -0.4358,0 -0.81097,0.0872 -0.37517,0.0872 -0.69729,0.26148 v -1.03456 q 0.4358,-0.10611 0.8754,-0.15917 0.43959,-0.0568 0.87919,-0.0568 1.14825,0 1.65605,0.45475 0.5116,0.45097 0.5116,1.47037 z"
         style="font-style:normal;font-variant:normal;font-weight:bold;font-stretch:normal;font-size:7.76111126px;font-family:sans-serif;-inkscape-font-specification:'sans-serif Bold';letter-spacing:-0.111125px;fill:#ffffff;stroke-width:0.26458001"
         id="path862"
         inkscape:connector-curvature="0" />
      <path
         d="m -328.52449,-105.16124 v 1.10656 q -0.27665,-0.18948 -0.55708,-0.28043 -0.27664,-0.091 -0.57602,-0.091 -0.56844,0 -0.88676,0.33348 -0.31454,0.3297 -0.31454,0.92467 0,0.59497 0.31454,0.92845 0.31832,0.3297 0.88676,0.3297 0.31833,0 0.60255,-0.0947 0.28801,-0.0947 0.53055,-0.28043 v 1.11035 q -0.31833,0.11748 -0.64803,0.17432 -0.3259,0.0606 -0.6556,0.0606 -1.14825,0 -1.79627,-0.58739 -0.64802,-0.59118 -0.64802,-1.6409 0,-1.04972 0.64802,-1.63711 0.64802,-0.59118 1.79627,-0.59118 0.33349,0 0.6556,0.0606 0.32591,0.0568 0.64803,0.17433 z"
         style="font-style:normal;font-variant:normal;font-weight:bold;font-stretch:normal;font-size:7.76111126px;font-family:sans-serif;-inkscape-font-specification:'sans-serif Bold';letter-spacing:-0.111125px;fill:#ffffff;stroke-width:0.26458001"
         id="path864"
         inkscape:connector-curvature="0" />
      <path
         d="m -323.22027,-103.18307 v 0.38654 h -3.1719 q 0.0493,0.47749 0.34485,0.71624 0.29559,0.23874 0.82614,0.23874 0.42822,0 0.87539,-0.12506 0.45097,-0.12884 0.92467,-0.38654 v 1.04593 q -0.48128,0.18191 -0.96256,0.27286 -0.48128,0.0947 -0.96256,0.0947 -1.15204,0 -1.79248,-0.5836 -0.63666,-0.58739 -0.63666,-1.64469 0,-1.03835 0.62529,-1.63332 0.62907,-0.59497 1.72806,-0.59497 1.00045,0 1.59921,0.60255 0.60255,0.60254 0.60255,1.61058 z m -1.39458,-0.45096 q 0,-0.38654 -0.22737,-0.6215 -0.22359,-0.23874 -0.58739,-0.23874 -0.39412,0 -0.64045,0.22358 -0.24632,0.2198 -0.30695,0.63666 z"
         style="font-style:normal;font-variant:normal;font-weight:bold;font-stretch:normal;font-size:7.76111126px;font-family:sans-serif;-inkscape-font-specification:'sans-serif Bold';letter-spacing:-0.111125px;fill:#ffffff;stroke-width:0.26458001"
         id="path866"
         inkscape:connector-curvature="0" />
      <path
         d="m -319.98139,-104.51701 q 0.34486,0 0.52297,-0.15159 0.17811,-0.15158 0.17811,-0.44717 0,-0.2918 -0.17811,-0.44338 -0.17811,-0.15538 -0.52297,-0.15538 h -0.80718 v 1.19752 z m 0.0493,2.47461 q 0.43959,0 0.65939,-0.18569 0.22359,-0.18569 0.22359,-0.56086 0,-0.36759 -0.2198,-0.54949 -0.2198,-0.18569 -0.66318,-0.18569 h -0.85645 v 1.48173 z m 1.35668,-2.03502 q 0.46991,0.13643 0.7276,0.50402 0.25769,0.36759 0.25769,0.90193 0,0.81855 -0.55328,1.22025 -0.55328,0.4017 -1.68258,0.4017 h -2.42156 v -5.65788 h 2.19039 q 1.17857,0 1.70532,0.35622 0.53055,0.35622 0.53055,1.14067 0,0.41307 -0.19327,0.70487 -0.19327,0.28801 -0.56086,0.42822 z"
         style="font-style:normal;font-variant:normal;font-weight:bold;font-stretch:normal;font-size:7.76111126px;font-family:sans-serif;-inkscape-font-specification:'sans-serif Bold';letter-spacing:-0.111125px;fill:#ffffff;stroke-width:0.26458001"
         id="path868"
         inkscape:connector-curvature="0" />
      <path
         d="m -314.48769,-104.42606 q -0.45096,0 -0.6897,0.32591 -0.23496,0.32211 -0.23496,0.93224 0,0.61012 0.23496,0.93603 0.23874,0.32212 0.6897,0.32212 0.44339,0 0.67834,-0.32212 0.23496,-0.32591 0.23496,-0.93603 0,-0.61013 -0.23496,-0.93224 -0.23495,-0.32591 -0.67834,-0.32591 z m 0,-0.97014 q 1.0952,0 1.70912,0.59118 0.6177,0.59118 0.6177,1.63711 0,1.04593 -0.6177,1.63711 -0.61392,0.59118 -1.70912,0.59118 -1.09898,0 -1.72048,-0.59118 -0.6177,-0.59118 -0.6177,-1.63711 0,-1.04593 0.6177,-1.63711 0.6215,-0.59118 1.72048,-0.59118 z"
         style="font-style:normal;font-variant:normal;font-weight:bold;font-stretch:normal;font-size:7.76111126px;font-family:sans-serif;-inkscape-font-specification:'sans-serif Bold';letter-spacing:-0.111125px;fill:#ffffff;stroke-width:0.26458001"
         id="path870"
         inkscape:connector-curvature="0" />
      <path
         d="m -311.28291,-106.94615 h 1.35668 v 5.89663 h -1.35668 z"
         style="font-style:normal;font-variant:normal;font-weight:bold;font-stretch:normal;font-size:7.76111126px;font-family:sans-serif;-inkscape-font-specification:'sans-serif Bold';letter-spacing:-0.111125px;fill:#ffffff;stroke-width:0.26458001"
         id="path872"
         inkscape:connector-curvature="0" />
      <path
         d="m -308.72615,-106.94615 h 1.35668 v 3.2098 l 1.56132,-1.55753 h 1.57647 l -2.07291,1.94786 2.23587,2.2965 h -1.64469 l -1.65606,-1.76975 v 1.76975 h -1.35668 z"
         style="font-style:normal;font-variant:normal;font-weight:bold;font-stretch:normal;font-size:7.76111126px;font-family:sans-serif;-inkscape-font-specification:'sans-serif Bold';letter-spacing:-0.111125px;fill:#ffffff;stroke-width:0.26458001"
         id="path874"
         inkscape:connector-curvature="0" />
    </g>
  </g>
</svg>
